<?xml version="1.0" encoding="utf-8"?>
<!-- Generator: Adobe Illustrator 19.0.0, SVG Export Plug-In . SVG Version: 6.00 Build 0)  -->
<svg version="1.1" id="Layer_1" xmlns="http://www.w3.org/2000/svg" xmlns:xlink="http://www.w3.org/1999/xlink" x="0px" y="0px"
	 viewBox="0 0 206.9 206.9" style="enable-background:new 0 0 206.9 206.9;" xml:space="preserve">
<style type="text/css">
	.st0{fill-rule:evenodd;clip-rule:evenodd;fill:#57A9AA;}
	.st1{fill-rule:evenodd;clip-rule:evenodd;fill:#333333;}
	.st2{fill-rule:evenodd;clip-rule:evenodd;fill:#676767;}
	.st3{fill-rule:evenodd;clip-rule:evenodd;fill:#FFFFFF;}
	.st4{fill-rule:evenodd;clip-rule:evenodd;fill:#F4772F;}
	.st5{fill-rule:evenodd;clip-rule:evenodd;fill:#010101;}
	.st6{fill-rule:evenodd;clip-rule:evenodd;fill:#C3C3C3;}
	.st7{opacity:0.15;fill-rule:evenodd;clip-rule:evenodd;fill:#010101;}
</style>
<g id="XMLID_2_">
	<path id="XMLID_43_" class="st0" d="M103.5,206.9c57,0,103.5-46.5,103.5-103.5C206.9,46.5,160.5,0,103.5,0C46.5,0,0,46.5,0,103.5
		C0,160.5,46.5,206.9,103.5,206.9z"/>
	<path id="XMLID_42_" class="st1" d="M142.5,90.9l19.5,58l10.6,31.5c-18.3,16.5-42.5,26.5-69.1,26.5h0c-26.6,0-50.8-10-69.1-26.5
		l10.6-31.5l19.5-58l39,0H142.5z"/>
	<path id="XMLID_41_" class="st2" d="M129.9,117l13.2,44.9l9.6,32.6c-14.6,7.9-31.3,12.4-49.1,12.4h0c-17.8,0-34.5-4.5-49.1-12.4
		l9.6-32.6L77.1,117h26.4H129.9z"/>
	<polygon id="XMLID_40_" class="st1" points="58,33.8 85.3,76.6 51.2,84.1 	"/>
	<polygon id="XMLID_39_" class="st1" points="148.9,33.8 121.7,76.6 155.7,84.1 	"/>
	<polygon id="XMLID_38_" class="st1" points="153.2,65.7 160,115.9 104.9,132.9 46.9,115.9 53.7,65.7 103.5,49.5 	"/>
	<ellipse id="XMLID_37_" class="st3" cx="80.5" cy="90.9" rx="24.3" ry="24.1"/>
	<ellipse id="XMLID_36_" class="st3" cx="126.4" cy="90.9" rx="24.3" ry="24.1"/>
	<path id="XMLID_35_" class="st4" d="M97,105c1.1-15.4,12.2-14.8,13,0l-6.5,13.8L97,105z"/>
	<circle id="XMLID_34_" class="st5" cx="80.5" cy="90.9" r="6.1"/>
	<circle id="XMLID_33_" class="st3" cx="83.7" cy="87.8" r="2.9"/>
	<circle id="XMLID_32_" class="st5" cx="126.4" cy="90.9" r="6.1"/>
	<circle id="XMLID_31_" class="st3" cx="129.6" cy="87.8" r="2.9"/>
	<path id="XMLID_30_" class="st6" d="M89.4,149c0.6,0.7,0.9,1.6,0.9,2.6c0,2.3-1.9,4.1-4.1,4.1c-2.3,0-4.1-1.9-4.1-4.1
		c0-1,0.4-1.9,0.9-2.6c0.8,0.9,1.9,1.5,3.2,1.5C87.5,150.5,88.6,149.9,89.4,149z"/>
	<path id="XMLID_29_" class="st6" d="M101.6,149c0.6,0.7,0.9,1.6,0.9,2.6c0,2.3-1.9,4.1-4.1,4.1c-2.3,0-4.1-1.9-4.1-4.1
		c0-1,0.4-1.9,0.9-2.6c0.8,0.9,1.9,1.5,3.2,1.5C99.7,150.5,100.8,149.9,101.6,149z"/>
	<path id="XMLID_28_" class="st6" d="M113.8,149c0.6,0.7,0.9,1.6,0.9,2.6c0,2.3-1.9,4.1-4.1,4.1c-2.3,0-4.1-1.9-4.1-4.1
		c0-1,0.4-1.9,0.9-2.6c0.8,0.9,1.9,1.5,3.2,1.5C111.9,150.5,113.1,149.9,113.8,149z"/>
	<path id="XMLID_27_" class="st6" d="M126.1,149c0.6,0.7,0.9,1.6,0.9,2.6c0,2.3-1.9,4.1-4.1,4.1c-2.3,0-4.1-1.9-4.1-4.1
		c0-1,0.4-1.9,0.9-2.6c0.8,0.9,1.9,1.5,3.2,1.5S125.3,149.9,126.1,149z"/>
	<path id="XMLID_26_" class="st6" d="M95.7,139.1c0.6,0.7,0.9,1.6,0.9,2.6c0,2.3-1.9,4.1-4.1,4.1s-4.1-1.9-4.1-4.1
		c0-1,0.4-1.9,0.9-2.6c0.8,0.9,1.9,1.5,3.2,1.5S94.9,140,95.7,139.1z"/>
	<path id="XMLID_25_" class="st6" d="M107.9,139.1c0.6,0.7,0.9,1.6,0.9,2.6c0,2.3-1.9,4.1-4.1,4.1c-2.3,0-4.1-1.9-4.1-4.1
		c0-1,0.4-1.9,0.9-2.6c0.8,0.9,1.9,1.5,3.2,1.5S107.2,140,107.9,139.1z"/>
	<path id="XMLID_24_" class="st6" d="M120.2,139.1c0.6,0.7,0.9,1.6,0.9,2.6c0,2.3-1.9,4.1-4.1,4.1c-2.3,0-4.1-1.9-4.1-4.1
		c0-1,0.4-1.9,0.9-2.6c0.8,0.9,1.9,1.5,3.2,1.5C118.2,140.6,119.4,140,120.2,139.1z"/>
	<path id="XMLID_23_" class="st6" d="M95.7,159.9c0.6,0.7,0.9,1.6,0.9,2.6c0,2.3-1.9,4.1-4.1,4.1s-4.1-1.9-4.1-4.1
		c0-1,0.4-1.9,0.9-2.6c0.8,0.9,1.9,1.5,3.2,1.5S94.9,160.8,95.7,159.9z"/>
	<path id="XMLID_22_" class="st6" d="M107.9,159.9c0.6,0.7,0.9,1.6,0.9,2.6c0,2.3-1.9,4.1-4.1,4.1c-2.3,0-4.1-1.9-4.1-4.1
		c0-1,0.4-1.9,0.9-2.6c0.8,0.9,1.9,1.5,3.2,1.5S107.2,160.8,107.9,159.9z"/>
	<path id="XMLID_21_" class="st6" d="M120.2,159.9c0.6,0.7,0.9,1.6,0.9,2.6c0,2.3-1.9,4.1-4.1,4.1c-2.3,0-4.1-1.9-4.1-4.1
		c0-1,0.4-1.9,0.9-2.6c0.8,0.9,1.9,1.5,3.2,1.5C118.2,161.4,119.4,160.8,120.2,159.9z"/>
	<path id="XMLID_20_" class="st6" d="M132.4,159.9c0.6,0.7,0.9,1.6,0.9,2.6c0,2.3-1.9,4.1-4.1,4.1c-2.3,0-4.1-1.9-4.1-4.1
		c0-1,0.4-1.9,0.9-2.6c0.8,0.9,1.9,1.5,3.2,1.5C130.5,161.4,131.6,160.8,132.4,159.9z"/>
	<path id="XMLID_19_" class="st6" d="M83.5,159.9c0.6,0.7,0.9,1.6,0.9,2.6c0,2.3-1.9,4.1-4.1,4.1c-2.3,0-4.1-1.9-4.1-4.1
		c0-1,0.4-1.9,0.9-2.6c0.8,0.9,1.9,1.5,3.2,1.5C81.6,161.4,82.7,160.8,83.5,159.9z"/>
	<path id="XMLID_18_" class="st6" d="M89.4,170.4c0.6,0.7,0.9,1.6,0.9,2.6c0,2.3-1.9,4.1-4.1,4.1c-2.3,0-4.1-1.9-4.1-4.1
		c0-1,0.4-1.9,0.9-2.6c0.8,0.9,1.9,1.5,3.2,1.5C87.5,172,88.6,171.4,89.4,170.4z"/>
	<path id="XMLID_17_" class="st6" d="M101.6,170.4c0.6,0.7,0.9,1.6,0.9,2.6c0,2.3-1.9,4.1-4.1,4.1c-2.3,0-4.1-1.9-4.1-4.1
		c0-1,0.4-1.9,0.9-2.6c0.8,0.9,1.9,1.5,3.2,1.5C99.7,172,100.8,171.4,101.6,170.4z"/>
	<path id="XMLID_16_" class="st6" d="M113.8,170.4c0.6,0.7,0.9,1.6,0.9,2.6c0,2.3-1.9,4.1-4.1,4.1c-2.3,0-4.1-1.9-4.1-4.1
		c0-1,0.4-1.9,0.9-2.6c0.8,0.9,1.9,1.5,3.2,1.5C111.9,172,113.1,171.4,113.8,170.4z"/>
	<path id="XMLID_15_" class="st6" d="M126.1,170.4c0.6,0.7,0.9,1.6,0.9,2.6c0,2.3-1.9,4.1-4.1,4.1c-2.3,0-4.1-1.9-4.1-4.1
		c0-1,0.4-1.9,0.9-2.6c0.8,0.9,1.9,1.5,3.2,1.5S125.3,171.4,126.1,170.4z"/>
	<path id="XMLID_14_" class="st6" d="M77.1,170.4c0.6,0.7,0.9,1.6,0.9,2.6c0,2.3-1.9,4.1-4.1,4.1c-2.3,0-4.1-1.9-4.1-4.1
		c0-1,0.4-1.9,0.9-2.6c0.8,0.9,1.9,1.5,3.2,1.5C75.2,172,76.4,171.4,77.1,170.4z"/>
	<path id="XMLID_13_" class="st6" d="M138.3,170.4c0.6,0.7,0.9,1.6,0.9,2.6c0,2.3-1.9,4.1-4.1,4.1c-2.3,0-4.1-1.9-4.1-4.1
		c0-1,0.4-1.9,0.9-2.6c0.8,0.9,1.9,1.5,3.2,1.5S137.5,171.4,138.3,170.4z"/>
	<path id="XMLID_12_" class="st6" d="M95.7,181.9c0.6,0.7,0.9,1.6,0.9,2.6c0,2.3-1.9,4.1-4.1,4.1s-4.1-1.9-4.1-4.1
		c0-1,0.4-1.9,0.9-2.6c0.8,0.9,1.9,1.5,3.2,1.5S94.9,182.8,95.7,181.9z"/>
	<path id="XMLID_11_" class="st6" d="M107.9,181.9c0.6,0.7,0.9,1.6,0.9,2.6c0,2.3-1.9,4.1-4.1,4.1c-2.3,0-4.1-1.9-4.1-4.1
		c0-1,0.4-1.9,0.9-2.6c0.8,0.9,1.9,1.5,3.2,1.5S107.2,182.8,107.9,181.9z"/>
	<path id="XMLID_10_" class="st6" d="M120.2,181.9c0.6,0.7,0.9,1.6,0.9,2.6c0,2.3-1.9,4.1-4.1,4.1c-2.3,0-4.1-1.9-4.1-4.1
		c0-1,0.4-1.9,0.9-2.6c0.8,0.9,1.9,1.5,3.2,1.5C118.2,183.4,119.4,182.8,120.2,181.9z"/>
	<path id="XMLID_9_" class="st6" d="M132.4,181.9c0.6,0.7,0.9,1.6,0.9,2.6c0,2.3-1.9,4.1-4.1,4.1c-2.3,0-4.1-1.9-4.1-4.1
		c0-1,0.4-1.9,0.9-2.6c0.8,0.9,1.9,1.5,3.2,1.5C130.5,183.4,131.6,182.8,132.4,181.9z"/>
	<path id="XMLID_8_" class="st6" d="M83.5,181.9c0.6,0.7,0.9,1.6,0.9,2.6c0,2.3-1.9,4.1-4.1,4.1c-2.3,0-4.1-1.9-4.1-4.1
		c0-1,0.4-1.9,0.9-2.6c0.8,0.9,1.9,1.5,3.2,1.5C81.6,183.4,82.7,182.8,83.5,181.9z"/>
	<path id="XMLID_7_" class="st6" d="M89.4,193.4c0.6,0.7,0.9,1.6,0.9,2.6c0,2.3-1.9,4.1-4.1,4.1c-2.3,0-4.1-1.9-4.1-4.1
		c0-1,0.4-1.9,0.9-2.6c0.8,0.9,1.9,1.5,3.2,1.5C87.5,195,88.6,194.4,89.4,193.4z"/>
	<path id="XMLID_6_" class="st6" d="M101.6,193.4c0.6,0.7,0.9,1.6,0.9,2.6c0,2.3-1.9,4.1-4.1,4.1c-2.3,0-4.1-1.9-4.1-4.1
		c0-1,0.4-1.9,0.9-2.6c0.8,0.9,1.9,1.5,3.2,1.5C99.7,195,100.8,194.4,101.6,193.4z"/>
	<path id="XMLID_5_" class="st6" d="M113.8,193.4c0.6,0.7,0.9,1.6,0.9,2.6c0,2.3-1.9,4.1-4.1,4.1c-2.3,0-4.1-1.9-4.1-4.1
		c0-1,0.4-1.9,0.9-2.6c0.8,0.9,1.9,1.5,3.2,1.5C111.9,195,113.1,194.4,113.8,193.4z"/>
	<path id="XMLID_4_" class="st6" d="M126.1,193.4c0.6,0.7,0.9,1.6,0.9,2.6c0,2.3-1.9,4.1-4.1,4.1c-2.3,0-4.1-1.9-4.1-4.1
		c0-1,0.4-1.9,0.9-2.6c0.8,0.9,1.9,1.5,3.2,1.5S125.3,194.4,126.1,193.4z"/>
	<path id="XMLID_3_" class="st7" d="M103.5,0c57.1,0,103.5,46.3,103.5,103.5c0,57.1-46.3,103.5-103.5,103.5V0z"/>
</g>
</svg>
