<?xml version="1.0" encoding="utf-8"?>
<!-- Generator: Adobe Illustrator 19.0.0, SVG Export Plug-In . SVG Version: 6.00 Build 0)  -->
<svg version="1.1" id="Layer_1" xmlns="http://www.w3.org/2000/svg" xmlns:xlink="http://www.w3.org/1999/xlink" x="0px" y="0px"
	 viewBox="0 0 206.9 206.9" style="enable-background:new 0 0 206.9 206.9;" xml:space="preserve">
<style type="text/css">
	.st0{fill-rule:evenodd;clip-rule:evenodd;fill:#F7A8AA;}
	.st1{fill-rule:evenodd;clip-rule:evenodd;fill:#6B4834;}
	.st2{fill-rule:evenodd;clip-rule:evenodd;fill:#E8CDBE;}
	.st3{fill-rule:evenodd;clip-rule:evenodd;fill:#F4772F;}
	.st4{fill-rule:evenodd;clip-rule:evenodd;fill:#010101;}
	.st5{fill-rule:evenodd;clip-rule:evenodd;fill:#FFFFFF;}
	.st6{opacity:0.15;fill-rule:evenodd;clip-rule:evenodd;fill:#010101;}
</style>
<path id="XMLID_14_" class="st0" d="M103.5,206.9c57,0,103.5-46.5,103.5-103.5C206.9,46.5,160.5,0,103.5,0S0,46.5,0,103.5
	C0,160.5,46.5,206.9,103.5,206.9"/>
<path id="XMLID_13_" class="st1" d="M103.4,206.9c-26.6,0-50.8-10-69.1-26.5l10.6-31.5l19.5-58l39,0h39l19.5,58l10.6,31.5
	C154.3,196.9,130.1,206.9,103.4,206.9"/>
<path id="XMLID_12_" class="st2" d="M103.4,206.9c-17.3,0-33.7-4.3-48-11.8c4.8-38.2,24.5-66.8,48.1-66.8
	c23.6,0,43.3,28.6,48.1,66.8C137.2,202.6,120.9,206.9,103.4,206.9"/>
<polygon id="XMLID_11_" class="st1" points="132.2,48.9 146.6,73.8 160.9,98.7 146.6,123.6 132.2,148.5 103.5,148.5 74.7,148.5 
	60.4,123.6 46,98.7 60.4,73.8 74.7,48.9 103.5,48.9 "/>
<path id="XMLID_10_" class="st2" d="M103.5,73.3c12.5,0,22.8,31.6,23.7,71.8h-23.7H79.8C80.7,104.9,90.9,73.3,103.5,73.3z"/>
<path id="XMLID_9_" class="st3" d="M92.1,129.4c11.2-5.9,11.7-4.6,22.7,0L102.9,145L92.1,129.4z"/>
<circle id="XMLID_8_" class="st4" cx="80.5" cy="90.9" r="6.1"/>
<circle id="XMLID_7_" class="st5" cx="83.2" cy="88.2" r="2.2"/>
<circle id="XMLID_6_" class="st4" cx="126.4" cy="90.9" r="6.1"/>
<circle id="XMLID_5_" class="st5" cx="129" cy="88.2" r="2.2"/>
<circle id="XMLID_4_" class="st1" cx="74.7" cy="48.9" r="16.4"/>
<circle id="XMLID_3_" class="st1" cx="132.2" cy="48.9" r="16.4"/>
<path id="XMLID_2_" class="st6" d="M103,206.9V0c57.1,0,103.5,46.3,103.5,103.5C206.5,160.6,160.1,206.9,103,206.9"/>
</svg>
