<?xml version="1.0" encoding="utf-8"?>
<!-- Generator: Adobe Illustrator 19.0.0, SVG Export Plug-In . SVG Version: 6.00 Build 0)  -->
<svg version="1.1" id="Layer_1" xmlns="http://www.w3.org/2000/svg" xmlns:xlink="http://www.w3.org/1999/xlink" x="0px" y="0px"
	 viewBox="0 0 206.9 206.9" style="enable-background:new 0 0 206.9 206.9;" xml:space="preserve">
<style type="text/css">
	.st0{fill-rule:evenodd;clip-rule:evenodd;fill:#F4772F;}
	.st1{fill-rule:evenodd;clip-rule:evenodd;fill:#F7A8AA;}
	.st2{fill-rule:evenodd;clip-rule:evenodd;fill:#FCD7DA;}
	.st3{fill-rule:evenodd;clip-rule:evenodd;fill:#010101;}
	.st4{fill-rule:evenodd;clip-rule:evenodd;fill:#FFFFFF;}
	.st5{opacity:0.15;fill-rule:evenodd;clip-rule:evenodd;fill:#010101;}
</style>
<g id="XMLID_2_">
	<path id="XMLID_17_" class="st0" d="M103.5,206.9c57,0,103.5-46.5,103.5-103.5C206.9,46.5,160.5,0,103.5,0C46.5,0,0,46.5,0,103.5
		C0,160.5,46.5,206.9,103.5,206.9z"/>
	<path id="XMLID_16_" class="st1" d="M142.5,90.9l19.5,58l10.6,31.5c-18.3,16.5-42.6,26.5-69.1,26.5h0c-26.6,0-50.8-10-69.1-26.5
		l10.6-31.5l19.5-58h39H142.5z"/>
	<polygon id="XMLID_15_" class="st2" points="133.4,73.8 142.2,70.3 151,66.7 153.7,45.8 132.6,44 127.3,51.9 122,59.8 127.7,66.8 	
		"/>
	<polygon id="XMLID_14_" class="st1" points="134.4,68.9 140.3,66.5 146.2,64.1 147.7,50 133.9,49 130.3,54.2 126.8,59.5 
		130.6,64.2 	"/>
	<polygon id="XMLID_13_" class="st2" points="74.2,73.8 65.4,70.3 56.5,66.7 53.9,45.8 75,44 80.2,51.9 85.5,59.8 79.8,66.8 	"/>
	<polygon id="XMLID_12_" class="st1" points="73.1,68.9 67.2,66.5 61.3,64.1 59.8,50 73.7,49 77.2,54.2 80.7,59.5 76.9,64.2 	"/>
	<polygon id="XMLID_11_" class="st2" points="137.2,58.9 147.7,87 158.1,115.2 130.8,132.6 103.5,149.9 76.1,132.6 48.8,115.2 
		59.3,87 69.7,58.9 103.5,58.9 	"/>
	<circle id="XMLID_10_" class="st3" cx="80" cy="89.7" r="6.1"/>
	<circle id="XMLID_9_" class="st4" cx="82.6" cy="86.9" r="2.2"/>
	<circle id="XMLID_8_" class="st3" cx="126.9" cy="89.7" r="6.1"/>
	<circle id="XMLID_7_" class="st4" cx="129.6" cy="86.9" r="2.2"/>
	<ellipse id="XMLID_6_" class="st1" cx="103.5" cy="110" rx="26.1" ry="20.2"/>
	<circle id="XMLID_5_" class="st2" cx="95.3" cy="110" r="5"/>
	<circle id="XMLID_4_" class="st2" cx="111.6" cy="110" r="5"/>
	<path id="XMLID_3_" class="st5" d="M103.5,0c57.1,0,103.5,46.3,103.5,103.5c0,57.1-46.3,103.5-103.5,103.5V0z"/>
</g>
</svg>
