<?xml version="1.0" encoding="utf-8"?>
<!-- Generator: Adobe Illustrator 19.0.0, SVG Export Plug-In . SVG Version: 6.00 Build 0)  -->
<svg version="1.1" id="Layer_1" xmlns="http://www.w3.org/2000/svg" xmlns:xlink="http://www.w3.org/1999/xlink" x="0px" y="0px"
	 viewBox="0 0 206.9 206.9" style="enable-background:new 0 0 206.9 206.9;" xml:space="preserve">
<style type="text/css">
	.st0{fill-rule:evenodd;clip-rule:evenodd;fill:#F7A8AA;}
	.st1{fill-rule:evenodd;clip-rule:evenodd;fill:#C99D6D;}
	.st2{fill-rule:evenodd;clip-rule:evenodd;fill:#A17847;}
	.st3{fill-rule:evenodd;clip-rule:evenodd;fill:#E1C19E;}
	.st4{fill-rule:evenodd;clip-rule:evenodd;fill:#010101;}
	.st5{fill-rule:evenodd;clip-rule:evenodd;fill:#FFFFFF;}
	.st6{fill-rule:evenodd;clip-rule:evenodd;fill:#765631;}
	.st7{fill-rule:evenodd;clip-rule:evenodd;fill:#4E4E4E;}
	.st8{fill-rule:evenodd;clip-rule:evenodd;fill:#333333;}
	.st9{opacity:0.15;fill-rule:evenodd;clip-rule:evenodd;fill:#010101;}
</style>
<g id="XMLID_2_">
	<path id="XMLID_23_" class="st0" d="M103.5,206.9c57,0,103.5-46.5,103.5-103.5C206.9,46.5,160.5,0,103.5,0C46.5,0,0,46.5,0,103.5
		C0,160.5,46.5,206.9,103.5,206.9z"/>
	<path id="XMLID_22_" class="st1" d="M141.8,15.8c-13.7-4.4-38.5,77.8-14,85.7C152.3,109.4,155.5,20.2,141.8,15.8z"/>
	<path id="XMLID_21_" class="st2" d="M144.2,20.5c-7-3.1-17.7,26.6-7,51.7c2.9,6.8-7.4,27.3-2.8,29.3
		C151.6,109,153.8,24.7,144.2,20.5z"/>
	<path id="XMLID_20_" class="st1" d="M142.5,90.9l19.5,58l10.6,31.5c-18.3,16.5-42.6,26.5-69.1,26.5h0c-26.6,0-50.8-10-69.1-26.5
		l10.6-31.5l19.5-58h39H142.5z"/>
	<path id="XMLID_19_" class="st3" d="M129.9,167.9l13.2,19.5l6,9c-13.8,6.8-29.3,10.6-45.6,10.6c-16.4,0-31.9-3.8-45.6-10.6l6-9
		l13.2-19.5h26.4H129.9z"/>
	<path id="XMLID_18_" class="st1" d="M65.7,15.8c13.7-4.4,38.5,77.8,14,85.7C55.2,109.4,52,20.2,65.7,15.8z"/>
	<path id="XMLID_17_" class="st2" d="M63.3,20.5c7-3.1,17.7,26.6,7,51.7c-2.9,6.8,7.4,27.3,2.8,29.3C55.9,109,53.7,24.7,63.3,20.5z"
		/>
	<polygon id="XMLID_16_" class="st1" points="132.2,60.6 155.8,115.3 125,148.5 81.9,148.5 51.1,115.3 74.7,60.6 	"/>
	
		<ellipse id="XMLID_15_" transform="matrix(-0.2673 -0.9636 0.9636 -0.2673 23.1133 186.8445)" class="st2" cx="82.6" cy="84.6" rx="5" ry="12.2"/>
	
		<ellipse id="XMLID_14_" transform="matrix(0.2672 -0.9636 0.9636 0.2672 8.9641 181.0573)" class="st2" cx="123.5" cy="84.6" rx="5" ry="12.2"/>
	<circle id="XMLID_13_" class="st4" cx="84.3" cy="89.7" r="6.1"/>
	<circle id="XMLID_12_" class="st5" cx="86.9" cy="86.9" r="2.2"/>
	<circle id="XMLID_11_" class="st4" cx="122.7" cy="89.7" r="6.1"/>
	<circle id="XMLID_10_" class="st5" cx="125.3" cy="86.9" r="2.2"/>
	<polygon id="XMLID_9_" class="st3" points="125,148.5 155.8,115.3 104.3,90.9 51.1,115.3 81.9,148.5 	"/>
	<polygon id="XMLID_8_" class="st2" points="121.4,148.5 126.6,130.7 131.9,112.9 118.1,101.9 104.3,90.9 90.6,101.9 76.8,112.9 
		82.1,130.7 87.3,148.5 104.4,148.5 	"/>
	<rect id="XMLID_7_" x="103.1" y="119.6" class="st6" width="2.5" height="28.8"/>
	<ellipse id="XMLID_6_" class="st7" cx="104.4" cy="119.6" rx="11.5" ry="6.7"/>
	<path id="XMLID_5_" class="st8" d="M115.7,120.4c-0.4,2.3-2.8,4.2-6.2,5.2c-0.2-0.5-0.3-1.1-0.3-1.7c0-2.3,1.9-4.2,4.2-4.2
		C114.3,119.7,115.1,120,115.7,120.4z"/>
	<path id="XMLID_4_" class="st8" d="M99.2,125.6c-3.4-1-5.8-2.9-6.2-5.2c0.7-0.5,1.5-0.7,2.3-0.7c2.3,0,4.2,1.9,4.2,4.2
		C99.5,124.5,99.4,125.1,99.2,125.6z"/>
	<path id="XMLID_3_" class="st9" d="M103.5,0c57.1,0,103.5,46.3,103.5,103.5c0,57.1-46.3,103.5-103.5,103.5V0z"/>
</g>
</svg>
