<?xml version="1.0" encoding="utf-8"?>
<!-- Generator: Adobe Illustrator 19.0.0, SVG Export Plug-In . SVG Version: 6.00 Build 0)  -->
<svg version="1.1" id="Layer_1" xmlns="http://www.w3.org/2000/svg" xmlns:xlink="http://www.w3.org/1999/xlink" x="0px" y="0px"
	 viewBox="0 0 206.9 206.9" style="enable-background:new 0 0 206.9 206.9;" xml:space="preserve">
<style type="text/css">
	.st0{fill-rule:evenodd;clip-rule:evenodd;fill:#57A9AA;}
	.st1{fill-rule:evenodd;clip-rule:evenodd;fill:#F4772F;}
	.st2{fill-rule:evenodd;clip-rule:evenodd;fill:#A24723;}
	.st3{fill-rule:evenodd;clip-rule:evenodd;fill:#010101;}
	.st4{fill-rule:evenodd;clip-rule:evenodd;fill:#FFFFFF;}
	.st5{fill-rule:evenodd;clip-rule:evenodd;fill:#1A1A1A;}
	.st6{opacity:0.15;fill-rule:evenodd;clip-rule:evenodd;fill:#010101;}
</style>
<g id="XMLID_2_">
	<path id="XMLID_17_" class="st0" d="M103.5,206.9c57,0,103.5-46.5,103.5-103.5C206.9,46.5,160.5,0,103.5,0S0,46.5,0,103.5
		C0,160.5,46.5,206.9,103.5,206.9z"/>
	<path id="XMLID_16_" class="st1" d="M142.5,90.9l19.5,58l10.6,31.5c-18.3,16.5-42.6,26.5-69.1,26.5h0c-26.6,0-50.8-10-69.1-26.5
		l10.6-31.5l19.5-58h39H142.5z"/>
	<path id="XMLID_15_" class="st1" d="M157.7,27.8c-8.1-4.5-50,37-29.7,52.1C148.4,95,165.8,32.2,157.7,27.8z"/>
	<path id="XMLID_14_" class="st2" d="M158.2,31.2c-5-3.6-19.2,10-15.1,28.3c1.1,5-13.2,21.7-9.9,24.1
		C145.7,92.5,165.1,36.1,158.2,31.2z"/>
	<path id="XMLID_13_" class="st1" d="M49.9,27.8c8.1-4.5,50,37,29.7,52.1C59.3,95,41.8,32.2,49.9,27.8z"/>
	<path id="XMLID_12_" class="st2" d="M49.4,31.2c5-3.6,19.2,10,15.1,28.3c-1.1,5,13.2,21.7,9.9,24.1C62,92.5,42.5,36.1,49.4,31.2z"
		/>
	<polygon id="XMLID_11_" class="st1" points="137,48.9 170.5,106.6 103.5,148.5 36.4,106.6 69.9,48.9 	"/>
	<path id="XMLID_10_" class="st2" d="M102.4,148.5l68.1-41.8c-33.5-57.7-67.1-57.7-67.6,25.5c0.5-83.2-25.7-83.2-67.6-25.5
		L102.4,148.5z"/>
	<circle id="XMLID_9_" class="st3" cx="84.3" cy="85.3" r="6.1"/>
	<circle id="XMLID_8_" class="st4" cx="86.9" cy="82.5" r="2.2"/>
	<circle id="XMLID_7_" class="st3" cx="122.7" cy="85.3" r="6.1"/>
	<circle id="XMLID_6_" class="st4" cx="125.3" cy="82.5" r="2.2"/>
	<path id="XMLID_5_" class="st5" d="M91.6,120.2c7.4-4.3,15.7-4.6,22.7,0l-11.9,11.9L91.6,120.2z"/>
	<path id="XMLID_4_" class="st4" d="M102.4,148.5l68.1-41.8c-30.8-14.2-52.7-4.1-67.6,25.5c-14.9-29.5-36.8-39.7-67.6-25.5
		L102.4,148.5z"/>
	<path id="XMLID_3_" class="st6" d="M103,0c57.1,0,103.5,46.3,103.5,103.5c0,57.1-46.3,103.5-103.5,103.5V0z"/>
</g>
</svg>
