<?xml version="1.0" encoding="utf-8"?>
<!-- Generator: Adobe Illustrator 19.0.0, SVG Export Plug-In . SVG Version: 6.00 Build 0)  -->
<svg version="1.1" id="Layer_1" xmlns="http://www.w3.org/2000/svg" xmlns:xlink="http://www.w3.org/1999/xlink" x="0px" y="0px"
	 viewBox="0 0 206.9 206.9" style="enable-background:new 0 0 206.9 206.9;" xml:space="preserve">
<style type="text/css">
	.st0{fill-rule:evenodd;clip-rule:evenodd;fill:#57A9AA;}
	.st1{fill-rule:evenodd;clip-rule:evenodd;fill:#6B4834;}
	.st2{fill-rule:evenodd;clip-rule:evenodd;fill:#84614C;}
	.st3{fill-rule:evenodd;clip-rule:evenodd;fill:#010101;}
	.st4{fill-rule:evenodd;clip-rule:evenodd;fill:#FFFFFF;}
	.st5{fill-rule:evenodd;clip-rule:evenodd;fill:#E8CDBE;}
	.st6{opacity:0.15;fill-rule:evenodd;clip-rule:evenodd;fill:#010101;}
</style>
<g id="XMLID_2_">
	<path id="XMLID_18_" class="st0" d="M103.5,206.9c57,0,103.5-46.5,103.5-103.5S160.5,0,103.5,0C46.5,0,0,46.5,0,103.5
		S46.5,206.9,103.5,206.9z"/>
	<path id="XMLID_17_" class="st1" d="M134.1,112.8l15.3,49.7l8.8,28.7c-15.9,9.9-34.6,15.7-54.8,15.7s-38.9-5.7-54.8-15.7l8.8-28.7
		l15.3-49.8h30.6H134.1z"/>
	<path id="XMLID_16_" class="st2" d="M70,22.5c9.3-0.9,30.5,68.4,5.5,75.2C50.6,104.4,60.7,23.4,70,22.5z"/>
	<path id="XMLID_15_" class="st1" d="M68.1,26.1c6.1-1.5,16.5,44.7,5,63.6c-3.1,5.2,0.1,8.5-4,9.5C54.1,102.9,59.7,28.2,68.1,26.1z"
		/>
	<path id="XMLID_14_" class="st2" d="M136.4,22.5c-9.3-0.9-30.5,68.4-5.5,75.2C155.8,104.4,145.7,23.4,136.4,22.5z"/>
	<path id="XMLID_13_" class="st1" d="M138.3,26.1c-6.1-1.5-16.5,44.7-5,63.6c3.1,5.2-0.1,8.5,4,9.5
		C152.3,102.9,146.7,28.2,138.3,26.1z"/>
	<polygon id="XMLID_12_" class="st2" points="127.3,63 151.2,99.8 121.4,195.3 85.6,195.3 55.7,99.8 79.6,63 	"/>
	<circle id="XMLID_11_" class="st3" cx="78.3" cy="109" r="5.2"/>
	<circle id="XMLID_10_" class="st4" cx="80.5" cy="106.6" r="1.9"/>
	<circle id="XMLID_9_" class="st3" cx="128.6" cy="109" r="5.2"/>
	<circle id="XMLID_8_" class="st4" cx="130.9" cy="106.6" r="1.9"/>
	<polygon id="XMLID_7_" class="st5" points="129,170.9 121.4,195.3 85.6,195.3 77.9,170.9 89.6,152.9 117.4,152.9 	"/>
	
		<ellipse id="XMLID_6_" transform="matrix(-0.1825 -0.9832 0.9832 -0.1825 -75.9024 301.5968)" class="st2" cx="87.4" cy="182.4" rx="8.5" ry="2.6"/>
	
		<ellipse id="XMLID_5_" transform="matrix(0.1825 -0.9832 0.9832 0.1825 -81.5985 266.569)" class="st2" cx="119.5" cy="182.4" rx="8.5" ry="2.6"/>
	<path id="XMLID_4_" class="st5" d="M112.7,86.2l9.3,38.3l-11.6,70.9H96.5l-11.6-70.9l9.3-38.3h0.1c5.7,8.2,8.6,19,5,33.2
		C106.8,113.1,112.6,99,112.7,86.2L112.7,86.2z"/>
	<path id="XMLID_3_" class="st6" d="M103.5,0c57.1,0,103.5,46.3,103.5,103.5s-46.3,103.5-103.5,103.5V0z"/>
</g>
</svg>
