<?xml version="1.0" encoding="utf-8"?>
<!-- Generator: Adobe Illustrator 19.0.0, SVG Export Plug-In . SVG Version: 6.00 Build 0)  -->
<svg version="1.1" id="Layer_1" xmlns="http://www.w3.org/2000/svg" xmlns:xlink="http://www.w3.org/1999/xlink" x="0px" y="0px"
	 viewBox="0 0 206.9 206.9" style="enable-background:new 0 0 206.9 206.9;" xml:space="preserve">
<style type="text/css">
	.st0{fill-rule:evenodd;clip-rule:evenodd;fill:#F4772F;}
	.st1{fill-rule:evenodd;clip-rule:evenodd;fill:#B3B3B3;}
	.st2{fill-rule:evenodd;clip-rule:evenodd;fill:#E5E5E5;}
	.st3{fill-rule:evenodd;clip-rule:evenodd;fill:#FFFFFF;}
	.st4{fill-rule:evenodd;clip-rule:evenodd;fill:#D3D3D3;}
	.st5{fill-rule:evenodd;clip-rule:evenodd;fill:#57A9AA;}
	.st6{fill-rule:evenodd;clip-rule:evenodd;fill:#333333;}
	.st7{fill-rule:evenodd;clip-rule:evenodd;fill:#84614C;}
	.st8{fill:#FFFFFF;}
	.st9{opacity:0.15;fill-rule:evenodd;clip-rule:evenodd;fill:#010101;}
</style>
<g id="XMLID_2_">
	<path id="XMLID_34_" class="st0" d="M103.5,206.9c57,0,103.5-46.5,103.5-103.5S160.5,0,103.5,0C46.5,0,0,46.5,0,103.5
		S46.5,206.9,103.5,206.9z"/>
	<path id="XMLID_33_" class="st1" d="M142.5,90.9l19.5,58l10.6,31.5c-18.3,16.5-42.6,26.5-69.1,26.5h0c-26.6,0-50.8-10-69.1-26.5
		l10.6-31.5l19.5-58l39,0H142.5z"/>
	<path id="XMLID_32_" class="st2" d="M129.9,102.3l13.2,52.3l10,39.7c-14.7,8.1-31.6,12.6-49.6,12.6h0c-18,0-34.8-4.6-49.6-12.6
		l10-39.7l13.2-52.3l26.4,0H129.9z"/>
	<path id="XMLID_31_" class="st1" d="M128.7,58.2l25.2,54.1c-36.8,46-64.1,46-100.9,0l11.9-25.4l13.4-28.7h25.2H128.7z"/>
	<path id="XMLID_30_" class="st2" d="M161.2,28.1c-7.9-4.9-51.8,34.5-32.2,50.6c5.4,4.5,22.6,8.2,19.9,2.9
		C144.6,73.4,166.9,31.6,161.2,28.1z"/>
	<path id="XMLID_29_" class="st1" d="M161.5,31.5c-4.8-3.9-31.5,22.6-28.3,41.2c0.9,5.1-2.4,7.4,0.8,9.9c2.7,2.2,16.5,2.2,14.8-1
		C145.2,74.6,166.6,35.6,161.5,31.5z"/>
	<path id="XMLID_28_" class="st2" d="M45.6,28.1c7.9-4.9,51.8,34.5,32.2,50.6c-5.4,4.5-22.6,8.2-19.9,2.9
		C62.1,73.4,39.9,31.6,45.6,28.1z"/>
	<path id="XMLID_27_" class="st1" d="M45.3,31.5c4.8-3.9,31.5,22.6,28.3,41.2c-0.9,5.1,2.4,7.4-0.8,9.9c-2.7,2.2-16.5,2.2-14.8-1
		C61.5,74.6,40.2,35.6,45.3,31.5z"/>
	<path id="XMLID_26_" class="st2" d="M132.2,48.9l28.7,56.6c-41.9,48.1-73,48.1-114.9,0l13.5-26.6l15.2-30h28.7H132.2z"/>
	<ellipse id="XMLID_25_" class="st3" cx="87.9" cy="117.4" rx="15.2" ry="9.2"/>
	<ellipse id="XMLID_24_" class="st3" cx="118.4" cy="117.4" rx="15.2" ry="9.2"/>
	<path id="XMLID_23_" class="st1" d="M79.9,110.2c11.8-6.7,17-22,10.5-38.6C64.1,81,70.4,97.8,79.9,110.2z"/>
	<path id="XMLID_22_" class="st1" d="M132.2,48.9c-20.6,14.2-23.6,45.4-29.1,68.4c-5.1-23.3-7.5-54-28.4-68.4h11H127H132.2z"/>
	<path id="XMLID_21_" class="st1" d="M127,110.2c-11.8-6.7-17-22-10.5-38.6C143.7,80.2,137.3,96.9,127,110.2z"/>
	<path id="XMLID_20_" class="st1" d="M103.3,114.3c0.7,3.2,2.7,5.9,5.4,7.6c3.3,2.5,8,4,13.2,4c0.9,0,1.8,0,2.7-0.1
		c-9.4,18.8-32.8,18.5-42.2,0c0.9,0.1,1.7,0.1,2.6,0.1C94.5,125.9,102.2,120.8,103.3,114.3z"/>
	<path id="XMLID_19_" class="st4" d="M122.8,86.5c2.8-2.4,6.7-2.6,9.8-0.9c1.1,3.3,0.2,7.1-2.6,9.4c-2.8,2.4-6.7,2.6-9.8,0.9
		C119.1,92.7,120,88.9,122.8,86.5z"/>
	<path id="XMLID_18_" class="st4" d="M84.1,86.5c-2.8-2.4-6.7-2.6-9.8-0.9c-1.1,3.3-0.2,7.1,2.6,9.4c2.8,2.4,6.7,2.6,9.8,0.9
		C87.9,92.7,86.9,88.9,84.1,86.5z"/>
	<circle id="XMLID_17_" class="st5" cx="126.4" cy="90.8" r="5.2"/>
	<circle id="XMLID_16_" class="st3" cx="128.6" cy="88.4" r="1.9"/>
	<ellipse id="XMLID_15_" class="st6" cx="126.4" cy="90.8" rx="1.1" ry="3.3"/>
	<circle id="XMLID_14_" class="st5" cx="80.5" cy="90.8" r="5.2"/>
	<circle id="XMLID_13_" class="st3" cx="82.8" cy="88.4" r="1.9"/>
	<ellipse id="XMLID_12_" class="st6" cx="80.5" cy="90.8" rx="1.1" ry="3.3"/>
	<path id="XMLID_11_" class="st2" d="M103.3,114.3c0.7,3.2,2.7,5.9,5.4,7.6c0.9,0.6,1.8,1.2,2.8,1.7c-5.2,2-10.8,2-16-0.1
		C99.7,121.5,102.7,118.2,103.3,114.3z"/>
	<path id="XMLID_10_" class="st7" d="M95.3,109c3.8-3.1,12.3-3.4,16.4,0l-8.6,8.5L95.3,109z"/>
	<path id="XMLID_9_" class="st8" d="M92.3,115.7c0.3,0.1,0.4,0.5,0.3,0.8c-0.1,0.3-0.5,0.4-0.8,0.3c-8.7-4.3-19.1-5.5-28.7-4.8
		c-11.3,0.9-21.3,4.4-25.8,8.9c-0.2,0.2-0.6,0.2-0.8,0c-0.2-0.2-0.2-0.6,0-0.8c4.7-4.7,15-8.4,26.5-9.3
		C72.7,110.1,83.4,111.3,92.3,115.7z"/>
	<path id="XMLID_8_" class="st8" d="M90.8,117.8c0.3,0.1,0.5,0.4,0.4,0.7c-0.1,0.3-0.4,0.5-0.7,0.4c-7.5-2.2-15.8-2.2-23.7-0.9
		c-9.1,1.6-17.6,5-23.4,8.9c-0.3,0.2-0.6,0.1-0.8-0.2c-0.2-0.3-0.1-0.6,0.2-0.8c5.9-4.1,14.6-7.5,23.9-9.1
		C74.6,115.5,83.1,115.6,90.8,117.8z"/>
	<path id="XMLID_7_" class="st8" d="M89.7,120.1c0.3,0,0.6,0.3,0.5,0.7c0,0.3-0.3,0.6-0.7,0.5c-6.6-0.7-13.4,0.2-19.9,2.1
		c-7.5,2.2-14.4,5.7-19.8,9.6c-0.3,0.2-0.6,0.1-0.8-0.1c-0.2-0.3-0.1-0.6,0.1-0.8c5.5-4,12.6-7.6,20.2-9.8
		C76,120.3,83,119.4,89.7,120.1z"/>
	<path id="XMLID_6_" class="st8" d="M114.7,115.7c-0.3,0.1-0.4,0.5-0.3,0.8c0.1,0.3,0.5,0.4,0.8,0.3c8.7-4.3,19.1-5.5,28.7-4.8
		c11.3,0.9,21.3,4.4,25.8,8.9c0.2,0.2,0.6,0.2,0.8,0c0.2-0.2,0.2-0.6,0-0.8c-4.7-4.7-15-8.4-26.5-9.3
		C134.3,110.1,123.5,111.3,114.7,115.7z"/>
	<path id="XMLID_5_" class="st8" d="M116.1,117.8c-0.3,0.1-0.5,0.4-0.4,0.7c0.1,0.3,0.4,0.5,0.7,0.4c7.5-2.2,15.8-2.2,23.7-0.9
		c9.1,1.6,17.6,5,23.4,8.9c0.3,0.2,0.6,0.1,0.8-0.2c0.2-0.3,0.1-0.6-0.2-0.8c-5.9-4.1-14.6-7.5-23.9-9.1
		C132.3,115.5,123.8,115.6,116.1,117.8z"/>
	<path id="XMLID_4_" class="st8" d="M117.2,120.1c-0.3,0-0.6,0.3-0.5,0.7c0,0.3,0.3,0.6,0.7,0.5c6.6-0.7,13.4,0.2,19.9,2.1
		c7.5,2.2,14.4,5.7,19.8,9.6c0.3,0.2,0.6,0.1,0.8-0.1c0.2-0.3,0.1-0.6-0.1-0.8c-5.5-4-12.6-7.6-20.2-9.8
		C131,120.3,123.9,119.4,117.2,120.1z"/>
	<path id="XMLID_3_" class="st9" d="M103.5,0c57.1,0,103.5,46.3,103.5,103.5s-46.3,103.5-103.5,103.5V0z"/>
</g>
</svg>
