<?xml version="1.0" encoding="utf-8"?>
<!-- Generator: Adobe Illustrator 19.0.0, SVG Export Plug-In . SVG Version: 6.00 Build 0)  -->
<svg version="1.1" id="Layer_1" xmlns="http://www.w3.org/2000/svg" xmlns:xlink="http://www.w3.org/1999/xlink" x="0px" y="0px"
	 viewBox="0 0 206.9 206.9" style="enable-background:new 0 0 206.9 206.9;" xml:space="preserve">
<style type="text/css">
	.st0{fill-rule:evenodd;clip-rule:evenodd;fill:#F7A8AA;}
	.st1{fill-rule:evenodd;clip-rule:evenodd;fill:#333333;}
	.st2{fill-rule:evenodd;clip-rule:evenodd;fill:#FFFFFF;}
	.st3{fill-rule:evenodd;clip-rule:evenodd;fill:#F4772F;}
	.st4{fill-rule:evenodd;clip-rule:evenodd;fill:#010101;}
	.st5{opacity:0.15;fill-rule:evenodd;clip-rule:evenodd;fill:#010101;}
</style>
<g id="XMLID_2_">
	<path id="XMLID_14_" class="st0" d="M103.5,206.9c57,0,103.5-46.5,103.5-103.5S160.5,0,103.5,0S0,46.5,0,103.5
		S46.5,206.9,103.5,206.9z"/>
	<path id="XMLID_13_" class="st1" d="M142.5,90.9l19.5,58l10.6,31.5c-18.3,16.5-42.6,26.5-69.1,26.5h0c-26.6,0-50.8-10-69.1-26.5
		l10.6-31.5l19.5-58l39,0H142.5z"/>
	<polygon id="XMLID_12_" class="st1" points="132.2,52.5 153.6,73.3 160.9,102.3 153.6,131.2 132.2,152 103.5,160.2 74.7,152 
		53.3,131.3 46,102.3 53.3,73.3 74.7,52.5 103.4,44.4 	"/>
	<path id="XMLID_11_" class="st2" d="M129.9,102.3l13.2,52.3l10,39.7c-14.7,8.1-31.6,12.6-49.6,12.6h0c-18,0-34.8-4.6-49.6-12.6
		l10-39.7l13.2-52.3l26.4,0H129.9z"/>
	<path id="XMLID_10_" class="st3" d="M83.5,113c15.1,0,13.8-19.3,20.2-19.3c6.9,0,3.5,19.3,19.8,19.3l-20.9,15.6L83.5,113z"/>
	<ellipse id="XMLID_9_" class="st2" cx="80.5" cy="90.9" rx="20.5" ry="24.7"/>
	<ellipse id="XMLID_8_" class="st2" cx="126.4" cy="90.9" rx="20.5" ry="24.7"/>
	<circle id="XMLID_7_" class="st4" cx="80.5" cy="90.9" r="6.1"/>
	<circle id="XMLID_6_" class="st2" cx="83.7" cy="87.8" r="2.9"/>
	<circle id="XMLID_5_" class="st4" cx="126.4" cy="90.9" r="6.1"/>
	<circle id="XMLID_4_" class="st2" cx="129.6" cy="87.8" r="2.9"/>
	<path id="XMLID_3_" class="st5" d="M103,0c57.1,0,103.5,46.3,103.5,103.5S160.1,206.9,103,206.9V0z"/>
</g>
</svg>
